<svg xmlns="http://www.w3.org/2000/svg" width="324" height="288" viewBox="0, 0, 324, 288">
    <path fill="#1C1C1C" d="M0 0h324v288H0z"/>
    <defs>
        <clipPath id="a">
            <path d="M166.654 524.357h147.635v161.049H166.654zm69.339 8c-16.865.624-35.015 2.182-48.694 13.246-19.475 15.752-16.592 43.57-8.19 64.446 2.819 7.005 7.229 17.941 14.527 21.783 13.592 2.964 21.756 38.77 25.59 42.787 3.834 4.018 46.279 3.431 52.462-.097 6.183-3.527 4.985-29.384 19.487-38.526 6.715-4.233 51.826-95.726-38.99-102.995-9.157-.613-3.763-.33-16.192-.644z"/>
        </clipPath>
        <filter id="b">
            <feGaussianBlur in="SourceAlpha" stdDeviation="2.5"/>
            <feOffset dy="2" result="offsetblur"/>
            <feFlood flood-color="#000"/>
            <feComposite in2="offsetblur" operator="in"/>
        </filter>
        <clipPath id="c">
            <path d="M159.909-342.556h147.635v161.049H159.909zm69.339 8c-16.865.624-35.015 2.182-48.694 13.247-19.475 15.752-16.592 43.57-8.19 64.445 2.819 7.005 7.229 17.941 14.528 21.783 13.591 2.964 21.755 38.77 25.589 42.787 3.834 4.018 46.279 3.431 52.462-.097 6.183-3.527 4.985-29.384 19.487-38.526 6.715-4.233 51.826-95.726-38.99-102.994-9.157-.614-3.763-.331-16.192-.645z"/>
        </clipPath>
        <filter id="d">
            <feGaussianBlur in="SourceAlpha" stdDeviation="2.5"/>
            <feOffset dy="2" result="offsetblur"/>
            <feFlood flood-color="#000"/>
            <feComposite in2="offsetblur" operator="in"/>
        </filter>
    </defs>
    <g fill="#FFF">
        <path d="M-56.827-327.755c23.981 8.675 42.573 1.162 12.757 11.176-29.817 10.013-154.113 61.493-167.101 131.695-.692 3.742-11.058-6.944-12.756-11.176-13.399-33.4 143.119-140.371 167.1-131.695z"/>
        <path d="M-268.451-305.859c-2.699 2.171 7.73-13.864 10.08-14.908 49.482-21.972 210.591 92.304 204.621 98.191-5.97 5.886 15.432 56.332-10.081 14.908-25.513-41.424-182.121-116.291-204.62-98.191zM-198.811-186.772c-6.703 20.152-16.185 23.074-22.425 10.203-4.305-8.879-31.689 12.267-28.198-11.802.394-2.719 10.964-29.612 24.255-10.655 12.781 18.228 30.706-.785 26.368 12.254zM-72.073-337.672c11.973-23.109 19.443-22.508 22.328-3.747 4.055 26.367 24.687.287 20.445 26.959-.575 3.619-17.373 32.976-24.033 3.564-5.159-22.786-26.487-11.823-18.74-26.776z"/>
        <path d="M-283.237-304.169c12.406 17.398 28.298 6.432 25.315-7.969-2.267-10.943 20.594-13.381 12.691-26.861-1.418-2.418-22.831-15.712-27.074 7.596-2.999 16.478-17.12 18.557-10.932 27.234zM-69.793-193.726c16.246 13.986 25.282 10.516 23.264-5.542-1.536-12.224 24.93-9.687 15.871-29.499-1.229-2.687-23.474-19.846-24.957 6.343-1.149 20.289-24.69 19.649-14.178 28.698z"/>
    </g>
    <path d="M189.079 1805.364l14.252 11.896L9.379 1985.841l-14.251-11.896 193.951-168.581z" fill="#FFF"/>
    <path d="M189.079 1805.364l14.252 11.896L9.379 1985.841l-14.251-11.896 193.951-168.581z" stroke="#001156" fill="none"/>
    <path d="M-53.969 1835.717l10.28-15.708 247.02 116.071-10.281 15.709-247.019-116.072z" fill="#FFF"/>
    <path d="M-53.969 1835.717l10.28-15.708 247.02 116.071-10.281 15.709-247.019-116.072z" stroke="#001156" fill="none"/>
    <path d="M191.125 1491.608c2.605.033 3.273.008 5.849.17 7.434.469 17.44 2.07 23.702 6.564 1.362.977 3.228 2.543 3.151 4.46-.069 1.727-1.799 2.596-3.153 3.139-12.148 4.464-22.884 14.623 13.77 22.452 34.385 7.344-11.845 30.61-20.033 31.703-7.395.987-22.711 1.134-35.788-5.04-4.626-2.241-4.145-6.387-3.113-10.726l-90.011 35.068 81.382 31.706c-.839-2.947-2.07-6.368-.965-9.438.602-1.672 1.888-2.792 3.413-3.546 8.732-4.119 18.362-5.489 27.894-5.552a65.7 65.7 0 0 1 7.893.511c8.189 1.093 54.419 24.36 20.034 31.704-36.654 7.828-25.919 17.988-13.771 22.452 12.148 4.464-11.999 20.448-51.586 11.818-7.629-1.774-20.037-5.22-23.319-13.528-3.274-8.292 5.59-15.064 12.349-17.042l-94.657-36.878-94.657 36.878c9.025 2.504 18.038 12.294 9.676 21.11-5.194 5.476-13.605 7.886-20.645 9.46-39.587 8.63-63.735-7.354-51.587-11.818 12.149-4.464 22.884-14.624-13.77-22.452-34.385-7.344 11.845-30.611 20.033-31.704 7.395-.987 22.711-1.134 35.788 5.041 5.417 2.551 3.843 8.346 2.448 12.984l81.382-31.706-90.012-35.068c.564 2.305 1.136 4.857.3 7.18-.602 1.672-1.888 2.792-3.413 3.546-13.077 6.174-28.393 6.027-35.787 5.04-8.188-1.093-54.418-24.359-20.034-31.703 36.655-7.829 25.919-17.988 13.771-22.452-1.186-.47-2.578-1.13-3.03-2.466-.581-1.718.894-3.369 2.058-4.373 4.798-4.137 13.28-5.998 19.314-6.801.87-.116 1.742-.217 2.615-.302a81.217 81.217 0 0 1 5.608-.353c.994-.029 1.989-.026 2.984-.038 7.416-.004 14.783.994 22.037 2.514 7.726 1.76 21.589 5.702 23.75 14.906 1.505 6.413-3.974 11.654-9.063 14.176-2.177 1.079-4.452 1.765-6.808 2.284l107.042 41.703 107.042-41.703c-3.482-.7-6.876-1.997-9.814-4.066-5.529-3.892-8.623-10.435-4.082-16.501 4.812-6.43 14.442-9.159 21.775-10.799 5.183-1.129 10.44-1.911 15.727-2.28 2.817-.197 3.515-.178 6.311-.234z" fill="#FFF"/>
    <path d="M20.702 1617.854c-5.763-4.275-16.787-70.863-36.54-64.199-15.381 5.188-102.902-120.288 66.076-123.289 124.483-2.212 77.58 116.625 67.122 116.625-23.267 0-6.609 59.87-14.533 64.756-7.924 4.886-76.362 10.382-82.125 6.107z" fill="#FFF"/>
    <path d="M20.702 1617.854c-5.763-4.275-16.787-70.863-36.54-64.199-15.381 5.188-102.902-120.288 66.076-123.289 124.483-2.212 77.58 116.625 67.122 116.625-23.267 0-6.609 59.87-14.533 64.756-7.924 4.886-76.362 10.382-82.125 6.107z" stroke="#001156" stroke-width="2" fill="none"/>
    <path d="M75.249 1515.835c-12.56 0-22.742-10.279-22.742-22.958 0-12.679 10.182-22.957 22.742-22.957 12.561 0 22.743 10.278 22.743 22.957s-10.182 22.958-22.743 22.958z" fill="#001156"/>
    <path d="M75.249 1515.835c-12.56 0-22.742-10.279-22.742-22.958 0-12.679 10.182-22.957 22.742-22.957 12.561 0 22.743 10.278 22.743 22.957s-10.182 22.958-22.743 22.958z" stroke="#FFF" fill="none"/>
    <path d="M11.211 1526.399c-12.561 0-22.743-10.278-22.743-22.957s10.182-22.957 22.743-22.957c12.56 0 22.742 10.278 22.742 22.957s-10.182 22.957-22.742 22.957z" fill="#001156"/>
    <path d="M11.211 1526.399c-12.561 0-22.743-10.278-22.743-22.957s10.182-22.957 22.743-22.957c12.56 0 22.742 10.278 22.742 22.957s-10.182 22.957-22.742 22.957z" stroke="#FFF" fill="none"/>
    <path d="M44.682 1552.337c-4.479.006-1.831-4.375-1.831-9.771 0-5.395 0-9.648 1.831-9.77 2.283-.151 1.83 4.375 1.83 9.77 0 5.396 3.429 9.763-1.83 9.771zM55.957 1550.391c4.353-1.082.77-4.694-.475-9.937-1.245-5.242-2.227-9.374-4.033-9.047-2.254.407-.77 4.694.475 9.937 1.245 5.242-1.078 10.318 4.033 9.047z" fill="#001156"/>
    <path d="M70.38 1946.416c-4.389-3.691-14.607-51.042-29.647-45.288-11.712 4.481-78.352-103.866 50.312-106.458 94.784-1.909 59.071 100.704 51.108 100.704-17.717 0-8.714 39.348-14.748 43.567-6.033 4.219-52.637 11.166-57.025 7.475z" fill="#FFF"/>
    <path d="M70.38 1946.416c-4.389-3.691-14.607-51.042-29.647-45.288-11.712 4.481-78.352-103.866 50.312-106.458 94.784-1.909 59.071 100.704 51.108 100.704-17.717 0-8.714 39.348-14.748 43.567-6.033 4.219-52.637 11.166-57.025 7.475z" stroke="#001156" stroke-width="2" fill="none"/>
    <path d="M110.089 1868.472c-9.564 0-17.317-8.876-17.317-19.824 0-10.948 7.753-19.823 17.317-19.823 9.563 0 17.316 8.875 17.316 19.823s-7.753 19.824-17.316 19.824z" fill="#001156"/>
    <path d="M110.089 1868.472c-9.564 0-17.317-8.876-17.317-19.824 0-10.948 7.753-19.823 17.317-19.823 9.563 0 17.316 8.875 17.316 19.823s-7.753 19.824-17.316 19.824z" stroke="#FFF" fill="none"/>
    <path d="M61.328 1877.594c-9.564 0-17.316-8.875-17.316-19.823s7.752-19.824 17.316-19.824 17.317 8.876 17.317 19.824c0 10.948-7.753 19.823-17.317 19.823z" fill="#001156"/>
    <path d="M61.328 1877.594c-9.564 0-17.316-8.875-17.316-19.823s7.752-19.824 17.316-19.824 17.317 8.876 17.317 19.824c0 10.948-7.753 19.823-17.317 19.823z" stroke="#FFF" fill="none"/>
    <path d="M86.694 1899.922c-3.41.005-1.394-3.777-1.394-8.436s0-8.332 1.394-8.437c1.739-.13 1.394 3.778 1.394 8.437 0 4.659 2.611 8.43-1.394 8.436zM95.28 1898.242c3.314-.934.586-4.053-.362-8.58s-1.696-8.095-3.071-7.813c-1.716.352-.586 4.054.362 8.581.948 4.527-.821 8.91 3.071 7.812z" fill="#001156"/>
    <path d="M27.214 1984.916c-13.866 16.707-23.599 15.808-24.292 1.031-.478-10.194-33.496-.606-21.034-22.323 1.408-2.453 21.386-24.116 26.128-.75 4.559 22.467 28.169 11.232 19.198 22.042zM177.137 1798.618c8.429-22.72 15.47-22.957 20.387-5.854 6.912 24.037 23.067-2.362 22.274 22.843-.108 3.419-12.298 32.45-22.001 5.865-7.517-20.597-26.115-8.153-20.66-22.854zM-68.309 1840.535c13.527 17.378 26.488 14.746 27.682-.57.909-11.64 24.525-7.383 20.521-23.219-.718-2.84-17.169-21.819-29.336-.319-12.157 21.482-27.62 12.864-18.867 24.108zM178.427 1957.84c14.498 15.917 23.397 13.061 22.661-3.824-.561-12.854 24.561-8 17.37-29.381-.976-2.901-20.974-22.623-24.339 4.516-2.606 21.025-25.073 18.389-15.692 28.689zM173.47 2132.825c24.826 6.819 44.415-2.097 13.049 10.172-31.365 12.269-162.35 73.126-177.589 144.144-.812 3.786-11.378-6.08-13.049-10.172-13.187-32.29 152.764-150.964 177.589-144.144z" fill="#FFF"/>
    <path d="M173.47 2132.825c24.826 6.819 44.415-2.097 13.049 10.172-31.365 12.269-162.35 73.126-177.589 144.144-.812 3.786-11.378-6.08-13.049-10.172-13.187-32.29 152.764-150.964 177.589-144.144z" stroke="#001156" fill="none"/>
    <path d="M-48.862 2156.852c-2.777 2.023 7.26-13.323 9.754-14.251 52.531-19.543 240.435 99.762 234.391 105.305-6.044 5.543 22.119 56.109-9.755 14.251-31.873-41.858-211.241-122.175-234.39-105.305z" fill="#FFF"/>
    <path d="M-48.862 2156.852c-2.777 2.023 7.26-13.323 9.754-14.251 52.531-19.543 240.435 99.762 234.391 105.305-6.044 5.543 22.119 56.109-9.755 14.251-31.873-41.858-211.241-122.175-234.39-105.305z" stroke="#001156" fill="none"/>
    <path d="M63.718 2268.119c-4.388-3.692-14.607-51.042-29.647-45.288-11.712 4.481-78.352-103.866 50.312-106.458 94.784-1.91 59.071 100.704 51.108 100.704-17.716 0-8.714 39.348-14.747 43.566-6.034 4.219-52.638 11.167-57.026 7.476z" fill="#FFF"/>
    <path d="M63.718 2268.119c-4.388-3.692-14.607-51.042-29.647-45.288-11.712 4.481-78.352-103.866 50.312-106.458 94.784-1.91 59.071 100.704 51.108 100.704-17.716 0-8.714 39.348-14.747 43.566-6.034 4.219-52.638 11.167-57.026 7.476z" stroke="#001156" stroke-width="2" fill="none"/>
    <path d="M103.427 2190.174c-9.564 0-17.317-8.875-17.317-19.823s7.753-19.824 17.317-19.824 17.317 8.876 17.317 19.824c0 10.948-7.753 19.823-17.317 19.823z" fill="#001156"/>
    <path d="M103.427 2190.174c-9.564 0-17.317-8.875-17.317-19.823s7.753-19.824 17.317-19.824 17.317 8.876 17.317 19.824c0 10.948-7.753 19.823-17.317 19.823z" stroke="#FFF" fill="none"/>
    <path d="M54.666 2199.297c-9.563 0-17.316-8.876-17.316-19.824 0-10.948 7.753-19.823 17.316-19.823 9.564 0 17.317 8.875 17.317 19.823s-7.753 19.824-17.317 19.824z" fill="#001156"/>
    <path d="M54.666 2199.297c-9.563 0-17.316-8.876-17.316-19.824 0-10.948 7.753-19.823 17.316-19.823 9.564 0 17.317 8.875 17.317 19.823s-7.753 19.824-17.317 19.824z" stroke="#FFF" fill="none"/>
    <path d="M80.033 2221.625c-3.41.005-1.394-3.777-1.394-8.437 0-4.659 0-8.331 1.394-8.436 1.738-.131 1.394 3.777 1.394 8.436 0 4.66 2.611 8.431-1.394 8.437zM88.618 2219.945c3.314-.934.586-4.054-.362-8.58-.948-4.527-1.695-8.095-3.071-7.813-1.716.352-.586 4.054.362 8.581.948 4.526-.821 8.909 3.071 7.812z" fill="#001156"/>
    <path d="M21.715 2284.375c-6.122 19.23-15.438 22.206-21.948 10.155-4.492-8.313-31.071 12.314-28.231-10.555.321-2.584 10.1-28.284 23.75-10.624 13.125 16.98 30.391-1.42 26.429 11.024zM158.849 2122.014c11.266-22.147 18.679-21.742 22.018-4.039 4.692 24.879 24.457-.273 20.94 25.079-.477 3.439-16.361 31.609-23.711 3.904-5.694-21.465-26.537-10.613-19.247-24.944zM-61.921 2161.637c17.229 11.306 28.192 5.467 24.869-8.104-2.526-10.313 20.054-13.125 11.88-25.716-1.466-2.258-21.799-14.144-26.619 7.789-4.816 21.915-21.277 18.715-10.13 26.031zM179.895 2274.549c16.449 12.886 25.31 9.401 22.9-5.761-1.835-11.542 24.442-9.722 14.962-28.284-1.286-2.518-23.758-18.276-24.555 6.556-.618 19.239-23.95 19.151-13.307 27.489zM-174.523-192.74c-3.834-4.018-11.998-39.823-25.59-42.788-10.988-2.396-64.729-108.697 58.549-98.83 90.816 7.268 45.704 98.761 38.99 102.994-14.502 9.143-13.304 34.999-19.487 38.527-6.183 3.527-48.629 4.114-52.462.097z" fill="#FFF"/>
    <path d="M-174.523-192.74c-3.834-4.018-11.998-39.823-25.59-42.788-10.988-2.396-64.729-108.697 58.549-98.83 90.816 7.268 45.704 98.761 38.99 102.994-14.502 9.143-13.304 34.999-19.487 38.527-6.183 3.527-48.629 4.114-52.462.097z" stroke="#1C1C1C" stroke-width="5" fill="none"/>
    <path d="M-157.65-229.575c-3.393-.337-1.008-3.898-.541-8.534.467-4.636.835-8.289 2.232-8.254 1.743.044 1.008 3.898.541 8.534-.466 4.635 1.753 8.649-2.232 8.254zM-148.939-230.386c3.391-.597.989-3.974.499-8.573-.489-4.6-.875-8.224-2.272-8.081-1.743.178-.989 3.974-.5 8.573.49 4.599-1.71 8.783 2.273 8.081zM-127.93-255.906c-13.69-.624-24.134-12.407-23.328-26.316.806-13.909 12.557-24.678 26.247-24.053s24.134 12.407 23.328 26.316c-.806 13.909-12.557 24.678-26.247 24.053z" fill="#383838"/>
    <path d="M-127.93-255.906c-13.69-.624-24.134-12.407-23.328-26.316.806-13.909 12.557-24.678 26.247-24.053s24.134 12.407 23.328 26.316c-.806 13.909-12.557 24.678-26.247 24.053z" stroke="#FFF" fill="none"/>
    <path d="M-126.315-261.642c-10.931 0-19.793-8.817-19.793-19.695 0-10.877 8.862-19.694 19.793-19.694s19.792 8.817 19.792 19.694c0 10.878-8.861 19.695-19.792 19.695z" fill="#383838"/>
    <path d="M-126.315-261.642c-10.931 0-19.793-8.817-19.793-19.695 0-10.877 8.862-19.694 19.793-19.694s19.792 8.817 19.792 19.694c0 10.878-8.861 19.695-19.792 19.695z" stroke="#FFF" fill="none"/>
    <path d="M-126.315-271.243c-5.3 0-9.597-4.409-9.597-9.847 0-5.439 4.297-9.847 9.597-9.847s9.596 4.408 9.596 9.847c0 5.438-4.296 9.847-9.596 9.847z" fill="#575757"/>
    <path d="M-126.315-271.243c-5.3 0-9.597-4.409-9.597-9.847 0-5.439 4.297-9.847 9.597-9.847s9.596 4.408 9.596 9.847c0 5.438-4.296 9.847-9.596 9.847z" stroke="#FFF" fill="none"/>
    <path d="M-126.315-275.114c-3.384 0-6.128-2.786-6.128-6.223 0-3.436 2.744-6.222 6.128-6.222s6.128 2.786 6.128 6.222c0 3.437-2.744 6.223-6.128 6.223z" fill="#535353"/>
    <path d="M-126.315-275.114c-3.384 0-6.128-2.786-6.128-6.223 0-3.436 2.744-6.222 6.128-6.222s6.128 2.786 6.128 6.222c0 3.437-2.744 6.223-6.128 6.223z" stroke="#FFF" fill="none"/>
    <path d="M-110.971-299.942c-4.377-1.089-2.298-2.77-1.821-3.301.477-.532 2.035.12 3.549 1.376 2.72 2.257 2.298 2.77 1.821 3.302-.477.531-2.045 2.598-3.549-1.377z" fill="#383838"/>
    <path d="M-110.971-299.942c-4.377-1.089-2.298-2.77-1.821-3.301.477-.532 2.035.12 3.549 1.376 2.72 2.257 2.298 2.77 1.821 3.302-.477.531-2.045 2.598-3.549-1.377z" stroke="#383838" fill="none"/>
    <path d="M-105.505-293.464c-2.448-1.973-.821-2.433-.416-2.632.404-.198 1.22.672 1.881 1.913 1.188 2.231.822 2.434.417 2.633-.404.198-1.802 1.054-1.882-1.914z" fill="#383838"/>
    <path d="M-105.505-293.464c-2.448-1.973-.821-2.433-.416-2.632.404-.198 1.22.672 1.881 1.913 1.188 2.231.822 2.434.417 2.633-.404.198-1.802 1.054-1.882-1.914z" stroke="#383838" fill="none"/>
    <path d="M334.901 544.905l13.164 13.067-178.405 129.46-13.163-13.067 178.404-129.46z" fill="#FFF"/>
    <path d="M334.901 544.905l13.164 13.067-178.405 129.46-13.163-13.067 178.404-129.46z" stroke="#001156" fill="none"/>
    <path d="M130.518 573.359l11.265-15.005 197.455 106.82-11.265 15.005-197.455-106.82z" fill="#FFF"/>
    <path d="M130.518 573.359l11.265-15.005 197.455 106.82-11.265 15.005-197.455-106.82z" stroke="#001156" fill="none"/>
    <path d="M179.793 693.34c-15.073 15.626-24.712 14.004-24.301-.784.284-10.202-33.358-3.102-19.31-23.829 1.587-2.342 23.124-22.454 26.111 1.2 2.871 22.745 27.253 13.301 17.5 23.413zM321.645 538.658c10.1-22.028 17.139-21.74 20.767-4.317 5.1 24.485 23.179-.635 20.508 24.44-.362 3.402-14.683 31.443-22.376 4.208-5.96-21.1-25.435-10.078-18.899-24.331zM105.918 570.73c12.193 18.339 25.314 16.681 27.648 1.496 1.774-11.54 25.007-5.533 22.195-21.624-.504-2.886-20.644-25.669-29.23-2.506-6.415 17.306-28.503 10.769-20.613 22.634zM315.421 688.667c13.27 16.955 22.358 14.77 22.883-2.123.4-12.859 25.09-6.146 19.513-28.003-.756-2.966-19.228-24.124-24.607 2.688-4.168 20.772-26.375 16.468-17.789 27.438z" fill="#FFF"/>
    <path d="M235.993 532.357c12.429.314 7.035.031 16.192.644 90.816 7.269 45.705 98.762 38.99 102.995-14.502 9.142-13.304 34.999-19.487 38.526-6.183 3.528-48.628 4.115-52.462.097-3.834-4.017-11.998-39.823-25.59-42.787-7.298-3.842-11.708-14.778-14.527-21.783-8.402-20.876-11.285-48.694 8.19-64.446 13.679-11.064 31.829-12.622 48.694-13.246z" clip-path="url(#a)" filter="url(#b)" fill="rgba(0,0,0,0.75)"/>
    <path d="M219.226 674.619c-3.834-4.017-11.998-39.823-25.59-42.787-10.988-2.396-64.729-108.697 58.549-98.831 90.816 7.269 45.705 98.762 38.99 102.995-14.502 9.142-13.304 34.999-19.487 38.526-6.183 3.528-48.628 4.115-52.462.097z" fill="#FFF"/>
    <path d="M214.966 598.525c-9.563.125-17.324-.438-17.334-1.258-.011-.819 7.732-1.585 17.295-1.711 9.563-.125 17.324.438 17.335 1.258.011.819-7.733 1.585-17.296 1.711z" fill="#383838"/>
    <path d="M214.966 598.525c-9.563.125-17.324-.438-17.334-1.258-.011-.819 7.732-1.585 17.295-1.711 9.563-.125 17.324.438 17.335 1.258.011.819-7.733 1.585-17.296 1.711z" stroke="#FFF" fill="none"/>
    <path d="M236.599 634.284c-3.393-.336-1.008-3.897-.541-8.533.467-4.636.835-8.29 2.232-8.254 1.743.044 1.009 3.897.542 8.533-.467 4.636 1.753 8.65-2.233 8.254zM245.31 633.474c3.391-.598.989-3.975.5-8.574-.49-4.599-.876-8.224-2.273-8.081-1.742.178-.989 3.975-.499 8.574.489 4.599-1.71 8.782 2.272 8.081zM266.32 611.954c-13.69-.625-24.135-12.407-23.329-26.316.806-13.909 12.558-24.678 26.247-24.053 13.69.625 24.135 12.407 23.329 26.316-.806 13.909-12.558 24.678-26.247 24.053z" fill="#383838"/>
    <path d="M266.32 611.954c-13.69-.625-24.135-12.407-23.329-26.316.806-13.909 12.558-24.678 26.247-24.053 13.69.625 24.135 12.407 23.329 26.316-.806 13.909-12.558 24.678-26.247 24.053z" stroke="#FFF" fill="none"/>
    <path d="M267.934 606.218c-10.931 0-19.793-8.818-19.793-19.695s8.862-19.695 19.793-19.695 19.793 8.818 19.793 19.695-8.862 19.695-19.793 19.695z" fill="#383838"/>
    <path d="M267.934 606.218c-10.931 0-19.793-8.818-19.793-19.695s8.862-19.695 19.793-19.695 19.793 8.818 19.793 19.695-8.862 19.695-19.793 19.695z" stroke="#FFF" fill="none"/>
    <path d="M267.934 596.616c-5.3 0-9.596-4.408-9.596-9.847 0-5.438 4.296-9.846 9.596-9.846s9.597 4.408 9.597 9.846c0 5.439-4.297 9.847-9.597 9.847z" fill="#575757"/>
    <path d="M267.934 596.616c-5.3 0-9.596-4.408-9.596-9.847 0-5.438 4.296-9.846 9.596-9.846s9.597 4.408 9.597 9.846c0 5.439-4.297 9.847-9.597 9.847z" stroke="#FFF" fill="none"/>
    <path d="M267.934 592.746c-3.384 0-6.128-2.786-6.128-6.223s2.744-6.223 6.128-6.223 6.128 2.786 6.128 6.223-2.744 6.223-6.128 6.223z" fill="#535353"/>
    <path d="M267.934 592.746c-3.384 0-6.128-2.786-6.128-6.223s2.744-6.223 6.128-6.223 6.128 2.786 6.128 6.223-2.744 6.223-6.128 6.223z" stroke="#FFF" fill="none"/>
    <path d="M283.278 567.918c-4.376-1.09-2.298-2.77-1.821-3.301.477-.532 2.035.12 3.549 1.376 2.721 2.257 2.299 2.77 1.822 3.302-.478.531-2.046 2.598-3.55-1.377z" fill="#383838"/>
    <path d="M283.278 567.918c-4.376-1.09-2.298-2.77-1.821-3.301.477-.532 2.035.12 3.549 1.376 2.721 2.257 2.299 2.77 1.822 3.302-.478.531-2.046 2.598-3.55-1.377z" stroke="#383838" fill="none"/>
    <path d="M288.745 574.396c-2.449-1.973-.821-2.434-.417-2.632.405-.199 1.22.672 1.882 1.913 1.188 2.231.821 2.434.416 2.632-.404.199-1.801 1.054-1.881-1.913z" fill="#383838"/>
    <path d="M288.745 574.396c-2.449-1.973-.821-2.434-.417-2.632.405-.199 1.22.672 1.882 1.913 1.188 2.231.821 2.434.416 2.632-.404.199-1.801 1.054-1.881-1.913z" stroke="#383838" fill="none"/>
    <path d="M193.822 593.805c-2.693-1.288-4.726-2.648-4.54-3.036.186-.389 2.52.34 5.214 1.629 2.694 1.288 4.726 2.648 4.541 3.036-.186.389-2.521-.34-5.215-1.629z" fill="#383838"/>
    <path d="M193.822 593.805c-2.693-1.288-4.726-2.648-4.54-3.036.186-.389 2.52.34 5.214 1.629 2.694 1.288 4.726 2.648 4.541 3.036-.186.389-2.521-.34-5.215-1.629z" stroke="#FFF" fill="none"/>
    <path d="M192.183 596.635c-2.913-.657-5.197-1.53-5.103-1.95.095-.421 2.533-.229 5.446.428 2.913.656 5.198 1.53 5.103 1.95-.095.421-2.533.229-5.446-.428z" fill="#383838"/>
    <path d="M192.183 596.635c-2.913-.657-5.197-1.53-5.103-1.95.095-.421 2.533-.229 5.446.428 2.913.656 5.198 1.53 5.103 1.95-.095.421-2.533.229-5.446-.428z" stroke="#FFF" fill="none"/>
    <text transform="translate(249.712 727.871)">
        <tspan x="-77.862" y="10.5" font-family="Luminari-Regular" font-size="35" fill="#FFF">Web Jerk</tspan>
    </text>
    <path d="M222.611 654.891l49.403-1.325" stroke="#1C1C1C" stroke-width="2" fill="none"/>
    <path d="M251.207 660.348c-.598 0-.638-2.493-1.082-5.496-.564-3.804.247-7.039.845-7.039s3.014 2.671 1.319 7.039c-1.099 2.83-.485 5.496-1.082 5.496zM228.08 649.168c-.597 0-.637 2.493-1.082 5.496-.563 3.804.248 7.039.846 7.039.597 0 1.717-2.371 1.318-7.039-.284-3.324-.484-5.496-1.082-5.496zM235.898 661.703c-.597 0-.637-2.493-1.082-5.495-.563-3.805.248-7.04.846-7.04.597 0 3.468 4.039 1.772 8.407-1.098 2.829-.938 4.128-1.536 4.128zM243.975 660.348c-.597 0 .595-2.955.15-5.957-.564-3.804-.984-6.578-.386-6.578.597 0 3.468 4.038 1.772 8.406-1.098 2.83-.938 4.129-1.536 4.129zM258.353 647.461c-.598 0-2.254 4.679-1.349 8.528.881 3.744.515 4.007 1.112 4.007.598 0 2.278-2.381 1.153-6.93-.453-1.832-.319-5.605-.916-5.605zM265.267 659.525c.597 0 .3-1.887 1.475-4.685 1.753-4.173-.641-7.849-1.239-7.849-.597 0-1.717 2.37-1.318 7.039.284 3.323.484 5.495 1.082 5.495z"/>
    <g>
        <path d="M328.156-322.008l13.164 13.067-178.405 129.46-13.163-13.067 178.404-129.46z" fill="#FFF"/>
        <path d="M328.156-322.008l13.164 13.067-178.405 129.46-13.163-13.067 178.404-129.46z" stroke="#001156" fill="none"/>
    </g>
    <g>
        <path d="M123.773-293.553l11.265-15.006 197.455 106.82-11.265 15.005-197.455-106.819z" fill="#FFF"/>
        <path d="M123.773-293.553l11.265-15.006 197.455 106.82-11.265 15.005-197.455-106.819z" stroke="#001156" fill="none"/>
    </g>
    <path d="M173.048-173.573c-15.073 15.626-24.712 14.004-24.301-.784.284-10.202-33.358-3.102-19.31-23.829 1.587-2.342 23.124-22.454 26.111 1.2 2.871 22.745 27.253 13.302 17.5 23.413zM314.9-328.255c10.1-22.028 17.139-21.739 20.767-4.317 5.1 24.485 23.179-.635 20.508 24.44-.362 3.402-14.683 31.443-22.376 4.208-5.96-21.1-25.435-10.077-18.899-24.331zM99.173-296.183c12.193 18.339 25.314 16.681 27.648 1.496 1.774-11.54 25.007-5.533 22.195-21.624-.504-2.886-20.644-25.669-29.23-2.506-6.415 17.306-28.503 10.769-20.613 22.634zM308.676-178.246c13.27 16.955 22.358 14.771 22.883-2.123.4-12.859 25.09-6.145 19.513-28.003-.756-2.966-19.228-24.124-24.607 2.688-4.168 20.772-26.375 16.468-17.789 27.438z" fill="#FFF"/>
    <g>
        <path d="M229.248-334.556c12.429.314 7.035.031 16.192.645 90.816 7.268 45.705 98.761 38.99 102.994-14.502 9.142-13.304 34.999-19.487 38.526-6.183 3.528-48.628 4.115-52.462.097-3.834-4.017-11.998-39.823-25.589-42.787-7.299-3.842-11.709-14.778-14.528-21.783-8.402-20.875-11.285-48.693 8.19-64.445 13.679-11.065 31.829-12.623 48.694-13.247z" clip-path="url(#c)" filter="url(#d)" fill="rgba(0,0,0,0.75)"/>
        <path d="M212.481-192.294c-3.834-4.017-11.998-39.823-25.589-42.787-10.989-2.396-64.73-108.697 58.548-98.831 90.816 7.269 45.705 98.762 38.99 102.995-14.502 9.142-13.304 34.999-19.487 38.526-6.183 3.528-48.628 4.115-52.462.097z" fill="#FFF"/>
    </g>
    <g>
        <path d="M208.221-268.388c-9.563.125-17.324-.438-17.334-1.257-.011-.82 7.732-1.586 17.295-1.712 9.563-.125 17.324.438 17.335 1.258.011.819-7.733 1.585-17.296 1.711z" fill="#383838"/>
        <path d="M208.221-268.388c-9.563.125-17.324-.438-17.334-1.257-.011-.82 7.732-1.586 17.295-1.712 9.563-.125 17.324.438 17.335 1.258.011.819-7.733 1.585-17.296 1.711z" stroke="#FFF" fill="none"/>
    </g>
    <path d="M229.854-228.628c-3.393-.337-1.008-3.898-.541-8.534.467-4.636.835-8.29 2.232-8.254 1.743.044 1.009 3.898.542 8.533-.467 4.636 1.753 8.65-2.233 8.255zM238.565-229.439c3.391-.598.989-3.975.5-8.574-.49-4.599-.876-8.224-2.273-8.081-1.742.178-.989 3.975-.499 8.574.489 4.599-1.71 8.783 2.272 8.081z" fill="#383838"/>
    <g>
        <path d="M259.575-254.959c-13.69-.625-24.135-12.407-23.329-26.316.806-13.909 12.558-24.678 26.248-24.053 13.689.625 24.134 12.407 23.328 26.316-.806 13.909-12.558 24.678-26.247 24.053z" fill="#383838"/>
        <path d="M259.575-254.959c-13.69-.625-24.135-12.407-23.329-26.316.806-13.909 12.558-24.678 26.248-24.053 13.689.625 24.134 12.407 23.328 26.316-.806 13.909-12.558 24.678-26.247 24.053z" stroke="#FFF" fill="none"/>
        <path d="M261.189-260.695c-10.931 0-19.793-8.818-19.793-19.695s8.862-19.695 19.793-19.695 19.793 8.818 19.793 19.695-8.862 19.695-19.793 19.695z" fill="#383838"/>
        <path d="M261.189-260.695c-10.931 0-19.793-8.818-19.793-19.695s8.862-19.695 19.793-19.695 19.793 8.818 19.793 19.695-8.862 19.695-19.793 19.695z" stroke="#FFF" fill="none"/>
        <path d="M261.189-270.297c-5.3 0-9.596-4.408-9.596-9.846 0-5.439 4.296-9.847 9.596-9.847s9.597 4.408 9.597 9.847c0 5.438-4.297 9.846-9.597 9.846z" fill="#575757"/>
        <path d="M261.189-270.297c-5.3 0-9.596-4.408-9.596-9.846 0-5.439 4.296-9.847 9.596-9.847s9.597 4.408 9.597 9.847c0 5.438-4.297 9.846-9.597 9.846z" stroke="#FFF" fill="none"/>
        <g>
            <path d="M261.189-274.167c-3.384 0-6.128-2.786-6.128-6.223 0-3.436 2.744-6.222 6.128-6.222s6.128 2.786 6.128 6.222c0 3.437-2.744 6.223-6.128 6.223z" fill="#535353"/>
            <path d="M261.189-274.167c-3.384 0-6.128-2.786-6.128-6.223 0-3.436 2.744-6.222 6.128-6.222s6.128 2.786 6.128 6.222c0 3.437-2.744 6.223-6.128 6.223z" stroke="#FFF" fill="none"/>
        </g>
        <g>
            <path d="M276.534-298.995c-4.377-1.09-2.299-2.77-1.822-3.301.477-.532 2.035.12 3.549 1.376 2.721 2.257 2.299 2.77 1.822 3.302-.478.531-2.046 2.598-3.549-1.377z" fill="#383838"/>
            <path d="M276.534-298.995c-4.377-1.09-2.299-2.77-1.822-3.301.477-.532 2.035.12 3.549 1.376 2.721 2.257 2.299 2.77 1.822 3.302-.478.531-2.046 2.598-3.549-1.377z" stroke="#383838" fill="none"/>
        </g>
        <g>
            <path d="M282-292.517c-2.449-1.973-.821-2.434-.417-2.632.405-.199 1.22.672 1.882 1.913 1.188 2.231.821 2.434.416 2.632-.404.199-1.801 1.055-1.881-1.913z" fill="#383838"/>
            <path d="M282-292.517c-2.449-1.973-.821-2.434-.417-2.632.405-.199 1.22.672 1.882 1.913 1.188 2.231.821 2.434.416 2.632-.404.199-1.801 1.055-1.881-1.913z" stroke="#383838" fill="none"/>
        </g>
    </g>
    <g>
        <path d="M187.077-273.107c-2.693-1.289-4.726-2.648-4.54-3.037.186-.389 2.52.34 5.214 1.629 2.694 1.288 4.727 2.648 4.541 3.037-.186.388-2.521-.341-5.215-1.629z" fill="#383838"/>
        <path d="M187.077-273.107c-2.693-1.289-4.726-2.648-4.54-3.037.186-.389 2.52.34 5.214 1.629 2.694 1.288 4.727 2.648 4.541 3.037-.186.388-2.521-.341-5.215-1.629z" stroke="#FFF" fill="none"/>
    </g>
    <g>
        <path d="M185.438-270.278c-2.913-.657-5.197-1.53-5.103-1.95.095-.421 2.533-.229 5.446.428s5.198 1.53 5.103 1.95c-.095.421-2.533.229-5.446-.428z" fill="#383838"/>
        <path d="M185.438-270.278c-2.913-.657-5.197-1.53-5.103-1.95.095-.421 2.533-.229 5.446.428s5.198 1.53 5.103 1.95c-.095.421-2.533.229-5.446-.428z" stroke="#FFF" fill="none"/>
    </g>
    <text transform="translate(242.967 -139.042)">
        <tspan x="-77.862" y="10.5" font-family="Luminari-Regular" font-size="35" fill="#FFF">Web Jerk</tspan>
    </text>
    <g>
        <path d="M-180.596-258.102c-11.212-.524-19.856-8.434-19.307-17.666.549-9.233 10.084-16.292 21.296-15.768 11.212.524 19.856 8.433 19.307 17.666-.549 9.232-10.084 16.292-21.296 15.768z" fill="#383838"/>
        <path d="M-180.596-258.102c-11.212-.524-19.856-8.434-19.307-17.666.549-9.233 10.084-16.292 21.296-15.768 11.212.524 19.856 8.433 19.307 17.666-.549 9.232-10.084 16.292-21.296 15.768z" stroke="#FFF" fill="none"/>
    </g>
    <g>
        <path d="M263.189 75.886l13.163 13.067-178.404 129.46-13.163-13.068L263.189 75.886z" fill="#FFF"/>
        <path d="M263.189 75.886l13.163 13.067-178.404 129.46-13.163-13.068L263.189 75.886z" stroke="#001156" fill="none"/>
    </g>
    <g>
        <path d="M58.806 104.34l11.265-15.005 197.454 106.82-11.265 15.005L58.806 104.34z" fill="#FFF"/>
        <path d="M58.806 104.34l11.265-15.005 197.454 106.82-11.265 15.005L58.806 104.34z" stroke="#001156" fill="none"/>
    </g>
    <path d="M108.081 224.321c-15.073 15.626-24.712 14.004-24.301-.784.283-10.202-33.358-3.102-19.311-23.829 1.587-2.342 23.125-22.454 26.111 1.2 2.872 22.745 27.254 13.301 17.501 23.413zM249.932 69.639c10.101-22.028 17.14-21.74 20.768-4.317 5.099 24.485 23.179-.635 20.508 24.44-.363 3.402-14.684 31.443-22.377 4.208-5.96-21.1-25.434-10.078-18.899-24.331zM34.206 101.711c12.193 18.339 25.314 16.681 27.648 1.496 1.774-11.54 25.006-5.533 22.195-21.624-.504-2.886-20.644-25.669-29.23-2.506-6.415 17.306-28.503 10.769-20.613 22.634zM243.709 219.648c13.27 16.955 22.358 14.77 22.883-2.123.4-12.86 25.09-6.146 19.513-28.004-.756-2.965-19.228-24.124-24.608 2.689-4.167 20.772-26.374 16.468-17.788 27.438z" fill="#FFF"/>
    <g>
        <path d="M148.014 206.1c-3.834-4.017-11.998-39.823-25.59-42.787-10.988-2.396-64.729-108.697 58.549-98.831 90.816 7.269 45.704 98.762 38.99 102.995-14.502 9.142-13.304 34.999-19.487 38.526-6.183 3.528-48.628 4.115-52.462.097z" fill="#FFF"/>
        <path d="M148.014 206.1c-3.834-4.017-11.998-39.823-25.59-42.787-10.988-2.396-64.729-108.697 58.549-98.831 90.816 7.269 45.704 98.762 38.99 102.995-14.502 9.142-13.304 34.999-19.487 38.526-6.183 3.528-48.628 4.115-52.462.097z" stroke="#1C1C1C" stroke-width="5" fill="none"/>
    </g>
    <path d="M164.887 169.265c-3.393-.336-1.008-3.897-.541-8.533.467-4.636.835-8.29 2.232-8.254 1.743.044 1.008 3.897.542 8.533-.467 4.636 1.753 8.65-2.233 8.254zM173.598 168.455c3.391-.598.989-3.975.499-8.574-.489-4.599-.875-8.224-2.272-8.081-1.743.178-.989 3.975-.5 8.574.49 4.599-1.71 8.782 2.273 8.081z" fill="#383838"/>
    <g>
        <path d="M194.607 142.935c-13.689-.625-24.134-12.407-23.328-26.316.806-13.909 12.558-24.678 26.247-24.053 13.69.625 24.135 12.407 23.329 26.316-.806 13.909-12.558 24.678-26.248 24.053z" fill="#383838"/>
        <path d="M194.607 142.935c-13.689-.625-24.134-12.407-23.328-26.316.806-13.909 12.558-24.678 26.247-24.053 13.69.625 24.135 12.407 23.329 26.316-.806 13.909-12.558 24.678-26.248 24.053z" stroke="#FFF" fill="none"/>
        <path d="M196.222 137.199c-10.931 0-19.793-8.818-19.793-19.695s8.862-19.695 19.793-19.695 19.793 8.818 19.793 19.695-8.862 19.695-19.793 19.695z" fill="#383838"/>
        <path d="M196.222 137.199c-10.931 0-19.793-8.818-19.793-19.695s8.862-19.695 19.793-19.695 19.793 8.818 19.793 19.695-8.862 19.695-19.793 19.695z" stroke="#FFF" fill="none"/>
        <path d="M196.222 127.597c-5.3 0-9.596-4.408-9.596-9.847 0-5.438 4.296-9.846 9.596-9.846s9.596 4.408 9.596 9.846c0 5.439-4.296 9.847-9.596 9.847z" fill="#383838"/>
        <path d="M196.222 127.597c-5.3 0-9.596-4.408-9.596-9.847 0-5.438 4.296-9.846 9.596-9.846s9.596 4.408 9.596 9.846c0 5.439-4.296 9.847-9.596 9.847z" stroke="#1C1C1C" fill="none"/>
        <g>
            <path d="M196.107 121.856c-2.101 0-3.804-1.849-3.804-4.13 0-2.281 1.703-4.131 3.804-4.131s3.804 1.85 3.804 4.131-1.703 4.13-3.804 4.13z" fill="#535353"/>
            <path d="M196.107 121.856c-2.101 0-3.804-1.849-3.804-4.13 0-2.281 1.703-4.131 3.804-4.131s3.804 1.85 3.804 4.131-1.703 4.13-3.804 4.13z" stroke="#1C1C1C" fill="none"/>
        </g>
        <g>
            <path d="M211.566 98.899c-4.376-1.09-2.298-2.77-1.821-3.301.477-.532 2.035.12 3.549 1.376 2.721 2.257 2.299 2.77 1.821 3.302-.477.531-2.045 2.598-3.549-1.377z" fill="#383838"/>
            <path d="M211.566 98.899c-4.376-1.09-2.298-2.77-1.821-3.301.477-.532 2.035.12 3.549 1.376 2.721 2.257 2.299 2.77 1.821 3.302-.477.531-2.045 2.598-3.549-1.377z" stroke="#383838" fill="none"/>
        </g>
        <g>
            <path d="M217.033 105.377c-2.449-1.973-.822-2.434-.417-2.632.404-.199 1.22.672 1.881 1.913 1.189 2.231.822 2.434.417 2.632-.404.199-1.802 1.054-1.881-1.913z" fill="#383838"/>
            <path d="M217.033 105.377c-2.449-1.973-.822-2.434-.417-2.632.404-.199 1.22.672 1.881 1.913 1.189 2.231.822 2.434.417 2.632-.404.199-1.802 1.054-1.881-1.913z" stroke="#383838" fill="none"/>
        </g>
    </g>
    <g>
        <path d="M141.941 140.738c-11.212-.524-19.856-8.433-19.307-17.666.55-9.232 10.084-16.292 21.296-15.768 11.212.524 19.856 8.434 19.307 17.666-.549 9.233-10.083 16.293-21.296 15.768z" fill="#383838"/>
        <path d="M141.941 140.738c-11.212-.524-19.856-8.433-19.307-17.666.55-9.232 10.084-16.292 21.296-15.768 11.212.524 19.856 8.434 19.307 17.666-.549 9.233-10.083 16.293-21.296 15.768z" stroke="#FFF" fill="none"/>
    </g>
    <path d="M193.773 114.464l8.951-4.011M196.735 113.667l9.124 3.546M199.048 115.53l3.676 8.87M193.773 126.686l5.926-7.377M187.077 121.95l9.271-.163M187.077 115.53l6.696 4.95M193.773 108.72l-1.47 9.235" stroke="#1C1C1C" stroke-width=".3" fill="none"/>
    <path d="M196.067 130.805c-7.229 0-13.09-5.845-13.09-13.055 0-7.209 5.861-13.054 13.09-13.054s13.09 5.845 13.09 13.054c0 7.21-5.861 13.055-13.09 13.055z" stroke="#1C1C1C" stroke-width="3" fill="none"/>
</svg>
