<svg xmlns="http://www.w3.org/2000/svg" width="324" height="288" viewBox="0, 0, 324, 288">
    <path fill="#1C1C1C" d="M0 0h324v288H0z"/>
    <defs>
        <clipPath id="a">
            <path d="M1944.375 824.057h147.636v161.049h-147.636zm69.34 8c-16.866.624-35.016 2.182-48.695 13.246-19.475 15.752-16.592 43.57-8.19 64.446 2.82 7.005 7.229 17.941 14.528 21.783 13.591 2.964 21.756 38.77 25.589 42.787 3.834 4.018 46.28 3.431 52.463-.097 6.183-3.527 4.985-29.384 19.486-38.526 6.715-4.234 51.827-95.726-38.99-102.995-9.157-.613-3.763-.33-16.191-.644z"/>
        </clipPath>
        <filter id="b">
            <feGaussianBlur in="SourceAlpha" stdDeviation="2.5"/>
            <feOffset dy="2" result="offsetblur"/>
            <feFlood flood-color="#000"/>
            <feComposite in2="offsetblur" operator="in"/>
        </filter>
        <clipPath id="c">
            <path d="M1908.451 40.674h147.636v161.049h-147.636zm69.34 8c-16.866.625-35.016 2.183-48.695 13.247-19.475 15.752-16.592 43.57-8.19 64.446 2.82 7.005 7.229 17.94 14.528 21.783 13.591 2.964 21.755 38.769 25.589 42.787 3.834 4.017 46.279 3.43 52.462-.097 6.184-3.527 4.985-29.384 19.487-38.527 6.715-4.233 51.826-95.725-38.99-102.994-9.157-.613-3.763-.331-16.191-.645z"/>
        </clipPath>
        <filter id="d">
            <feGaussianBlur in="SourceAlpha" stdDeviation="2.5"/>
            <feOffset dy="2" result="offsetblur"/>
            <feFlood flood-color="#000"/>
            <feComposite in2="offsetblur" operator="in"/>
        </filter>
    </defs>
    <g fill="#FFF">
        <path d="M2538.41 25.292c23.981 8.676 42.574 1.163 12.757 11.176-29.817 10.014-154.113 61.494-167.1 131.695-.693 3.743-11.059-6.943-12.757-11.176-13.399-33.399 143.119-140.37 167.1-131.695z"/>
        <path d="M2326.786 47.189c-2.698 2.171 7.731-13.865 10.08-14.908 49.482-21.972 210.591 92.304 204.621 98.19-5.97 5.887 15.433 56.332-10.081 14.908-25.512-41.424-182.121-116.29-204.62-98.19zM2396.427 166.276c-6.704 20.152-16.185 23.073-22.425 10.203-4.305-8.879-31.69 12.267-28.199-11.802.394-2.719 10.965-29.612 24.256-10.655 12.78 18.228 30.705-.785 26.368 12.254zM2523.164 15.376c11.973-23.109 19.443-22.508 22.328-3.747 4.056 26.366 24.687.287 20.446 26.959-.576 3.619-17.374 32.975-24.033 3.564-5.16-22.786-26.488-11.823-18.741-26.776z"/>
        <path d="M2312 48.879c12.406 17.398 28.298 6.431 25.315-7.969-2.266-10.944 20.595-13.381 12.691-26.861-1.418-2.418-22.831-15.712-27.074 7.596-2.999 16.478-17.12 18.556-10.932 27.234zM2525.444 159.322c16.246 13.985 25.282 10.516 23.264-5.542-1.535-12.224 24.93-9.688 15.871-29.499-1.229-2.688-23.474-19.846-24.957 6.343-1.148 20.289-24.69 19.649-14.178 28.698z"/>
    </g>
    <path d="M2579.491 728.576l14.251 11.897-193.951 168.581-14.252-11.897 193.952-168.581z" fill="#FFF"/>
    <path d="M2579.491 728.576l14.251 11.897-193.951 168.581-14.252-11.897 193.952-168.581z" stroke="#001156" fill="none"/>
    <path d="M2336.442 758.93l10.28-15.708 247.02 116.071-10.28 15.708-247.02-116.071z" fill="#FFF"/>
    <path d="M2336.442 758.93l10.28-15.708 247.02 116.071-10.28 15.708-247.02-116.071z" stroke="#001156" fill="none"/>
    <path d="M2581.536 414.82c2.605.033 3.274.009 5.85.171 7.434.469 17.439 2.069 23.701 6.563 1.362.977 3.228 2.544 3.151 4.46-.069 1.727-1.798 2.597-3.153 3.139-12.148 4.464-22.884 14.624 13.77 22.452 34.385 7.344-11.845 30.611-20.033 31.704-7.394.987-22.71 1.134-35.787-5.041-4.627-2.241-4.146-6.386-3.113-10.726l-90.012 35.068 81.382 31.707c-.838-2.948-2.07-6.368-.964-9.439.601-1.672 1.888-2.792 3.412-3.545 8.732-4.119 18.363-5.49 27.895-5.553 2.638.011 5.274.183 7.893.512 8.188 1.093 54.418 24.359 20.033 31.703-36.654 7.829-25.918 17.988-13.77 22.452 12.148 4.464-11.999 20.448-51.587 11.819-7.628-1.774-20.037-5.22-23.318-13.529-3.275-8.291 5.589-15.063 12.349-17.041l-94.657-36.878-94.657 36.878c9.024 2.503 18.038 12.293 9.676 21.109-5.195 5.477-13.606 7.887-20.646 9.461-39.587 8.629-63.734-7.355-51.586-11.819 12.148-4.464 22.884-14.623-13.771-22.452-34.385-7.344 11.845-30.61 20.034-31.703 7.394-.987 22.71-1.134 35.787 5.041 5.418 2.55 3.844 8.345 2.448 12.984l81.382-31.707-90.011-35.068c.564 2.306 1.135 4.857.299 7.18-.601 1.672-1.888 2.792-3.412 3.546-13.077 6.175-28.393 6.028-35.788 5.041-8.188-1.093-54.418-24.36-20.033-31.704 36.654-7.828 25.919-17.988 13.77-22.452-1.186-.47-2.578-1.129-3.029-2.466-.581-1.718.893-3.368 2.058-4.372 4.797-4.138 13.28-5.998 19.313-6.801.87-.116 1.742-.217 2.615-.302a81.067 81.067 0 0 1 5.608-.354c.994-.029 1.99-.025 2.984-.038 7.416-.003 14.784.994 22.038 2.515 7.726 1.759 21.588 5.702 23.749 14.906 1.505 6.413-3.974 11.653-9.062 14.175-2.178 1.08-4.453 1.765-6.808 2.284l107.042 41.703L2551.62 448.7c-3.483-.699-6.877-1.997-9.815-4.065-5.529-3.893-8.622-10.435-4.082-16.502 4.812-6.43 14.443-9.159 21.776-10.798 5.183-1.13 10.439-1.912 15.727-2.281 2.816-.197 3.514-.177 6.31-.234z" fill="#FFF"/>
    <path d="M2411.114 541.067c-5.764-4.275-16.788-70.864-36.541-64.2-15.381 5.189-102.902-120.287 66.077-123.289 124.482-2.211 77.579 116.625 67.122 116.625-23.268 0-6.609 59.871-14.534 64.757-7.924 4.885-76.361 10.382-82.124 6.107z" fill="#FFF"/>
    <path d="M2411.114 541.067c-5.764-4.275-16.788-70.864-36.541-64.2-15.381 5.189-102.902-120.287 66.077-123.289 124.482-2.211 77.579 116.625 67.122 116.625-23.268 0-6.609 59.871-14.534 64.757-7.924 4.885-76.361 10.382-82.124 6.107z" stroke="#001156" stroke-width="2" fill="none"/>
    <path d="M2465.661 439.047c-12.56 0-22.743-10.278-22.743-22.957s10.183-22.958 22.743-22.958c12.56 0 22.742 10.279 22.742 22.958 0 12.679-10.182 22.957-22.742 22.957z" fill="#1C1C1C"/>
    <path d="M2465.661 439.047c-12.56 0-22.743-10.278-22.743-22.957s10.183-22.958 22.743-22.958c12.56 0 22.742 10.279 22.742 22.958 0 12.679-10.182 22.957-22.742 22.957z" stroke="#FFF" fill="none"/>
    <path d="M2401.622 449.612c-12.56 0-22.742-10.279-22.742-22.958 0-12.679 10.182-22.957 22.742-22.957s22.742 10.278 22.742 22.957-10.182 22.958-22.742 22.958z" fill="#1C1C1C"/>
    <path d="M2401.622 449.612c-12.56 0-22.742-10.279-22.742-22.958 0-12.679 10.182-22.957 22.742-22.957s22.742 10.278 22.742 22.957-10.182 22.958-22.742 22.958z" stroke="#FFF" fill="none"/>
    <path d="M2435.093 475.549c-4.478.006-1.831-4.374-1.831-9.77s0-9.649 1.831-9.77c2.283-.152 1.831 4.374 1.831 9.77s3.429 9.763-1.831 9.77zM2446.369 473.604c4.352-1.082.769-4.695-.476-9.937-1.245-5.243-2.226-9.375-4.033-9.048-2.254.408-.769 4.695.476 9.937 1.245 5.243-1.079 10.319 4.033 9.048z" fill="#1C1C1C"/>
    <path d="M2460.791 869.628c-4.388-3.691-14.606-51.041-29.647-45.287-11.712 4.48-78.352-103.866 50.312-106.458 94.784-1.91 59.071 100.704 51.108 100.704-17.716 0-8.714 39.348-14.747 43.566-6.034 4.219-52.638 11.167-57.026 7.475z" fill="#FFF"/>
    <path d="M2460.791 869.628c-4.388-3.691-14.606-51.041-29.647-45.287-11.712 4.48-78.352-103.866 50.312-106.458 94.784-1.91 59.071 100.704 51.108 100.704-17.716 0-8.714 39.348-14.747 43.566-6.034 4.219-52.638 11.167-57.026 7.475z" stroke="#1C1C1C" stroke-width="2" fill="none"/>
    <path d="M2500.5 791.684c-9.564 0-17.317-8.875-17.317-19.823s7.753-19.824 17.317-19.824 17.317 8.876 17.317 19.824c0 10.948-7.753 19.823-17.317 19.823z" fill="#1C1C1C"/>
    <path d="M2500.5 791.684c-9.564 0-17.317-8.875-17.317-19.823s7.753-19.824 17.317-19.824 17.317 8.876 17.317 19.824c0 10.948-7.753 19.823-17.317 19.823z" stroke="#FFF" fill="none"/>
    <path d="M2451.74 800.807c-9.564 0-17.317-8.876-17.317-19.824 0-10.948 7.753-19.823 17.317-19.823 9.563 0 17.316 8.875 17.316 19.823s-7.753 19.824-17.316 19.824z" fill="#1C1C1C"/>
    <path d="M2451.74 800.807c-9.564 0-17.317-8.876-17.317-19.824 0-10.948 7.753-19.823 17.317-19.823 9.563 0 17.316 8.875 17.316 19.823s-7.753 19.824-17.316 19.824z" stroke="#FFF" fill="none"/>
    <path d="M2477.106 823.135c-3.41.005-1.394-3.778-1.394-8.437 0-4.659 0-8.331 1.394-8.436 1.738-.131 1.394 3.777 1.394 8.436s2.611 8.43-1.394 8.437zM2485.691 821.455c3.315-.934.586-4.054-.362-8.581-.948-4.526-1.695-8.094-3.071-7.812-1.716.352-.586 4.054.362 8.58.949 4.527-.821 8.91 3.071 7.813z" fill="#1C1C1C"/>
    <path d="M2417.625 908.128c-13.865 16.708-23.598 15.808-24.292 1.032-.478-10.195-33.496-.606-21.034-22.323 1.408-2.454 21.386-24.116 26.128-.751 4.56 22.468 28.17 11.232 19.198 22.042zM2567.548 721.831c8.43-22.72 15.47-22.958 20.388-5.854 6.911 24.036 23.066-2.362 22.273 22.842-.108 3.419-12.297 32.451-22 5.865-7.517-20.596-26.115-8.152-20.661-22.853zM2322.102 763.748c13.527 17.378 26.488 14.746 27.683-.571.908-11.64 24.524-7.383 20.52-23.219-.718-2.84-17.169-21.818-29.336-.319-12.156 21.482-27.62 12.864-18.867 24.109zM2568.838 881.052c14.498 15.918 23.397 13.062 22.661-3.824-.56-12.853 24.562-8 17.37-29.381-.975-2.9-20.973-22.622-24.338 4.516-2.607 21.025-25.073 18.39-15.693 28.689zM2563.882 1056.037c24.825 6.82 44.414-2.097 13.049 10.172-31.366 12.269-162.35 73.127-177.589 144.145-.813 3.786-11.378-6.08-13.049-10.172-13.188-32.291 152.763-150.964 177.589-144.145z" fill="#FFF"/>
    <path d="M2563.882 1056.037c24.825 6.82 44.414-2.097 13.049 10.172-31.366 12.269-162.35 73.127-177.589 144.145-.813 3.786-11.378-6.08-13.049-10.172-13.188-32.291 152.763-150.964 177.589-144.145z" stroke="#001156" fill="none"/>
    <path d="M2341.549 1080.064c-2.776 2.023 7.26-13.323 9.754-14.251 52.532-19.542 240.435 99.762 234.391 105.305-6.044 5.544 22.119 56.11-9.754 14.251-31.874-41.858-211.241-122.174-234.391-105.305z" fill="#FFF"/>
    <path d="M2341.549 1080.064c-2.776 2.023 7.26-13.323 9.754-14.251 52.532-19.542 240.435 99.762 234.391 105.305-6.044 5.544 22.119 56.11-9.754 14.251-31.874-41.858-211.241-122.174-234.391-105.305z" stroke="#001156" fill="none"/>
    <path d="M2454.129 1191.331c-4.388-3.691-14.606-51.042-29.647-45.288-11.711 4.481-78.352-103.866 50.312-106.458 94.784-1.909 59.071 100.704 51.109 100.704-17.717 0-8.714 39.348-14.748 43.567-6.034 4.219-52.638 11.166-57.026 7.475z" fill="#FFF"/>
    <path d="M2454.129 1191.331c-4.388-3.691-14.606-51.042-29.647-45.288-11.711 4.481-78.352-103.866 50.312-106.458 94.784-1.909 59.071 100.704 51.109 100.704-17.717 0-8.714 39.348-14.748 43.567-6.034 4.219-52.638 11.166-57.026 7.475z" stroke="#1C1C1C" stroke-width="2" fill="none"/>
    <path d="M2493.838 1113.387c-9.563 0-17.316-8.876-17.316-19.824 0-10.948 7.753-19.823 17.316-19.823 9.564 0 17.317 8.875 17.317 19.823s-7.753 19.824-17.317 19.824z" fill="#1C1C1C"/>
    <path d="M2493.838 1113.387c-9.563 0-17.316-8.876-17.316-19.824 0-10.948 7.753-19.823 17.316-19.823 9.564 0 17.317 8.875 17.317 19.823s-7.753 19.824-17.317 19.824z" stroke="#FFF" fill="none"/>
    <path d="M2445.078 1122.509c-9.564 0-17.317-8.875-17.317-19.823s7.753-19.824 17.317-19.824c9.563 0 17.316 8.876 17.316 19.824 0 10.948-7.753 19.823-17.316 19.823z" fill="#1C1C1C"/>
    <path d="M2445.078 1122.509c-9.564 0-17.317-8.875-17.317-19.823s7.753-19.824 17.317-19.824c9.563 0 17.316 8.876 17.316 19.824 0 10.948-7.753 19.823-17.316 19.823z" stroke="#FFF" fill="none"/>
    <path d="M2470.444 1144.837c-3.41.005-1.394-3.777-1.394-8.436s0-8.332 1.394-8.437c1.739-.13 1.394 3.778 1.394 8.437 0 4.659 2.611 8.43-1.394 8.436zM2479.03 1143.157c3.314-.934.585-4.053-.363-8.58s-1.695-8.095-3.071-7.812c-1.715.351-.585 4.053.363 8.58s-.822 8.91 3.071 7.812z" fill="#1C1C1C"/>
    <path d="M2412.126 1207.587c-6.122 19.231-15.438 22.206-21.948 10.156-4.491-8.314-31.071 12.314-28.231-10.556.321-2.583 10.1-28.283 23.75-10.624 13.125 16.981 30.391-1.419 26.429 11.024zM2549.26 1045.227c11.266-22.147 18.68-21.743 22.018-4.04 4.692 24.879 24.458-.272 20.941 25.079-.478 3.44-16.362 31.61-23.712 3.904-5.694-21.464-26.536-10.613-19.247-24.943zM2328.491 1084.849c17.228 11.306 28.192 5.468 24.868-8.103-2.525-10.314 20.054-13.126 11.88-25.717-1.466-2.258-21.799-14.144-26.619 7.789-4.816 21.916-21.277 18.716-10.129 26.031zM2570.307 1197.761c16.449 12.886 25.309 9.402 22.899-5.76-1.835-11.542 24.443-9.723 14.962-28.284-1.286-2.518-23.758-18.277-24.555 6.556-.617 19.238-23.95 19.15-13.306 27.488zM2420.714 160.307c-3.834-4.018-11.998-39.823-25.589-42.787-10.989-2.397-64.73-108.698 58.548-98.831 90.816 7.269 45.704 98.761 38.99 102.994-14.502 9.143-13.304 35-19.487 38.527-6.183 3.527-48.628 4.114-52.462.097z" fill="#FFF"/>
    <path d="M2420.714 160.307c-3.834-4.018-11.998-39.823-25.589-42.787-10.989-2.397-64.73-108.698 58.548-98.831 90.816 7.269 45.704 98.761 38.99 102.994-14.502 9.143-13.304 35-19.487 38.527-6.183 3.527-48.628 4.114-52.462.097z" stroke="#1C1C1C" stroke-width="5" fill="none"/>
    <path d="M2437.587 123.472c-3.393-.336-1.008-3.898-.541-8.533.467-4.636.835-8.29 2.232-8.255 1.743.045 1.009 3.898.542 8.534-.467 4.636 1.753 8.649-2.233 8.254zM2446.298 122.661c3.391-.597.989-3.974.5-8.573-.49-4.599-.876-8.224-2.273-8.081-1.742.178-.989 3.974-.499 8.574.489 4.599-1.711 8.782 2.272 8.08zM2467.308 97.142c-13.69-.625-24.135-12.407-23.329-26.316.806-13.909 12.558-24.678 26.248-24.053 13.69.625 24.134 12.407 23.328 26.316-.806 13.909-12.557 24.678-26.247 24.053z" fill="#383838"/>
    <path d="M2467.308 97.142c-13.69-.625-24.135-12.407-23.329-26.316.806-13.909 12.558-24.678 26.248-24.053 13.69.625 24.134 12.407 23.328 26.316-.806 13.909-12.557 24.678-26.247 24.053z" stroke="#FFF" fill="none"/>
    <path d="M2468.922 91.406c-10.931 0-19.793-8.818-19.793-19.695s8.862-19.695 19.793-19.695 19.793 8.818 19.793 19.695-8.862 19.695-19.793 19.695z" fill="#383838"/>
    <path d="M2468.922 91.406c-10.931 0-19.793-8.818-19.793-19.695s8.862-19.695 19.793-19.695 19.793 8.818 19.793 19.695-8.862 19.695-19.793 19.695z" stroke="#FFF" fill="none"/>
    <path d="M2468.922 81.804c-5.3 0-9.596-4.408-9.596-9.847 0-5.438 4.296-9.846 9.596-9.846s9.597 4.408 9.597 9.846c0 5.439-4.297 9.847-9.597 9.847z" fill="#575757"/>
    <path d="M2468.922 81.804c-5.3 0-9.596-4.408-9.596-9.847 0-5.438 4.296-9.846 9.596-9.846s9.597 4.408 9.597 9.846c0 5.439-4.297 9.847-9.597 9.847z" stroke="#FFF" fill="none"/>
    <path d="M2468.922 77.934c-3.384 0-6.128-2.786-6.128-6.223s2.744-6.223 6.128-6.223 6.128 2.786 6.128 6.223-2.744 6.223-6.128 6.223z" fill="#535353"/>
    <path d="M2468.922 77.934c-3.384 0-6.128-2.786-6.128-6.223s2.744-6.223 6.128-6.223 6.128 2.786 6.128 6.223-2.744 6.223-6.128 6.223z" stroke="#FFF" fill="none"/>
    <path d="M2484.267 53.106c-4.377-1.09-2.299-2.77-1.822-3.301.477-.532 2.035.12 3.549 1.376 2.721 2.257 2.299 2.77 1.822 3.302-.478.531-2.046 2.598-3.549-1.377z" fill="#383838"/>
    <path d="M2484.267 53.106c-4.377-1.09-2.299-2.77-1.822-3.301.477-.532 2.035.12 3.549 1.376 2.721 2.257 2.299 2.77 1.822 3.302-.478.531-2.046 2.598-3.549-1.377z" stroke="#383838" fill="none"/>
    <path d="M2489.733 59.584c-2.449-1.973-.821-2.434-.417-2.632.405-.199 1.22.672 1.882 1.913 1.188 2.231.821 2.434.417 2.632-.405.199-1.802 1.054-1.882-1.913z" fill="#383838"/>
    <path d="M2489.733 59.584c-2.449-1.973-.821-2.434-.417-2.632.405-.199 1.22.672 1.882 1.913 1.188 2.231.821 2.434.417 2.632-.405.199-1.802 1.054-1.882-1.913z" stroke="#383838" fill="none"/>
    <path d="M2112.623 844.605l13.163 13.067-178.404 129.46-13.164-13.068 178.405-129.459z" fill="#FFF"/>
    <path d="M2112.623 844.605l13.163 13.067-178.404 129.46-13.164-13.068 178.405-129.459z" stroke="#001156" fill="none"/>
    <path d="M1908.24 873.059l11.265-15.005 197.454 106.82-11.265 15.005-197.454-106.82z" fill="#FFF"/>
    <path d="M1908.24 873.059l11.265-15.005 197.454 106.82-11.265 15.005-197.454-106.82z" stroke="#001156" fill="none"/>
    <path d="M1957.515 993.04c-15.073 15.626-24.712 14.004-24.301-.784.283-10.202-33.358-3.102-19.311-23.829 1.587-2.342 23.125-22.454 26.111 1.2 2.871 22.745 27.253 13.301 17.501 23.413zM2099.366 838.358c10.101-22.028 17.139-21.74 20.768-4.317 5.099 24.485 23.178-.635 20.507 24.44-.362 3.402-14.683 31.443-22.376 4.208-5.96-21.1-25.435-10.078-18.899-24.331zM1883.639 870.43c12.193 18.339 25.315 16.681 27.648 1.496 1.774-11.54 25.007-5.533 22.196-21.624-.505-2.886-20.645-25.669-29.231-2.506-6.415 17.306-28.502 10.768-20.613 22.634zM2093.143 988.367c13.27 16.955 22.357 14.77 22.883-2.123.4-12.86 25.089-6.146 19.513-28.004-.757-2.965-19.229-24.124-24.608 2.689-4.167 20.772-26.375 16.468-17.788 27.438z" fill="#FFF"/>
    <path d="M2013.715 832.057c12.428.314 7.034.031 16.191.644 90.817 7.269 45.705 98.761 38.99 102.995-14.501 9.142-13.303 34.999-19.486 38.526-6.183 3.528-48.629 4.115-52.463.097-3.833-4.017-11.998-39.823-25.589-42.787-7.299-3.842-11.708-14.778-14.528-21.783-8.402-20.876-11.285-48.694 8.19-64.446 13.679-11.064 31.829-12.622 48.695-13.246z" clip-path="url(#a)" filter="url(#b)" fill="rgba(0,0,0,0.75)"/>
    <path d="M1996.947 974.319c-3.833-4.017-11.998-39.823-25.589-42.787-10.988-2.397-64.729-108.698 58.548-98.831 90.817 7.269 45.705 98.761 38.99 102.995-14.501 9.142-13.303 34.999-19.486 38.526-6.183 3.528-48.629 4.115-52.463.097z" fill="#FFF"/>
    <path d="M1992.688 898.224c-9.563.126-17.324-.437-17.335-1.257-.011-.819 7.733-1.585 17.296-1.711 9.563-.125 17.324.438 17.334 1.257.011.82-7.733 1.586-17.295 1.711z" fill="#383838"/>
    <path d="M1992.688 898.224c-9.563.126-17.324-.437-17.335-1.257-.011-.819 7.733-1.585 17.296-1.711 9.563-.125 17.324.438 17.334 1.257.011.82-7.733 1.586-17.295 1.711z" stroke="#FFF" fill="none"/>
    <path d="M2014.321 933.984c-3.394-.336-1.009-3.897-.542-8.533.467-4.636.835-8.29 2.233-8.254 1.743.044 1.008 3.897.541 8.533-.467 4.636 1.753 8.65-2.232 8.254zM2023.032 933.174c3.391-.598.989-3.975.499-8.574s-.875-8.224-2.272-8.081c-1.743.178-.99 3.975-.5 8.574s-1.71 8.782 2.273 8.081zM2044.041 911.654c-13.69-.625-24.134-12.407-23.328-26.316.806-13.909 12.557-24.678 26.247-24.053s24.134 12.407 23.328 26.316c-.806 13.909-12.557 24.678-26.247 24.053z" fill="#383838"/>
    <path d="M2044.041 911.654c-13.69-.625-24.134-12.407-23.328-26.316.806-13.909 12.557-24.678 26.247-24.053s24.134 12.407 23.328 26.316c-.806 13.909-12.557 24.678-26.247 24.053z" stroke="#FFF" fill="none"/>
    <path d="M2045.656 905.918c-10.932 0-19.793-8.818-19.793-19.695s8.861-19.695 19.793-19.695c10.931 0 19.792 8.818 19.792 19.695s-8.861 19.695-19.792 19.695z" fill="#383838"/>
    <path d="M2045.656 905.918c-10.932 0-19.793-8.818-19.793-19.695s8.861-19.695 19.793-19.695c10.931 0 19.792 8.818 19.792 19.695s-8.861 19.695-19.792 19.695z" stroke="#FFF" fill="none"/>
    <path d="M2045.656 896.316c-5.3 0-9.597-4.408-9.597-9.847 0-5.438 4.297-9.846 9.597-9.846s9.596 4.408 9.596 9.846c0 5.439-4.296 9.847-9.596 9.847z" fill="#575757"/>
    <path d="M2045.656 896.316c-5.3 0-9.597-4.408-9.597-9.847 0-5.438 4.297-9.846 9.597-9.846s9.596 4.408 9.596 9.846c0 5.439-4.296 9.847-9.596 9.847z" stroke="#FFF" fill="none"/>
    <path d="M2045.656 892.446c-3.385 0-6.128-2.786-6.128-6.223s2.743-6.223 6.128-6.223c3.384 0 6.127 2.786 6.127 6.223s-2.743 6.223-6.127 6.223z" fill="#535353"/>
    <path d="M2045.656 892.446c-3.385 0-6.128-2.786-6.128-6.223s2.743-6.223 6.128-6.223c3.384 0 6.127 2.786 6.127 6.223s-2.743 6.223-6.127 6.223z" stroke="#FFF" fill="none"/>
    <path d="M2061 867.618c-4.377-1.09-2.298-2.77-1.821-3.301.477-.532 2.035.12 3.549 1.376 2.72 2.257 2.298 2.77 1.821 3.302-.477.531-2.045 2.598-3.549-1.377z" fill="#383838"/>
    <path d="M2061 867.618c-4.377-1.09-2.298-2.77-1.821-3.301.477-.532 2.035.12 3.549 1.376 2.72 2.257 2.298 2.77 1.821 3.302-.477.531-2.045 2.598-3.549-1.377z" stroke="#383838" fill="none"/>
    <path d="M2066.466 874.096c-2.448-1.973-.821-2.434-.416-2.632.404-.199 1.22.672 1.881 1.913 1.188 2.231.821 2.434.417 2.632-.405.199-1.802 1.054-1.882-1.913z" fill="#383838"/>
    <path d="M2066.466 874.096c-2.448-1.973-.821-2.434-.416-2.632.404-.199 1.22.672 1.881 1.913 1.188 2.231.821 2.434.417 2.632-.405.199-1.802 1.054-1.882-1.913z" stroke="#383838" fill="none"/>
    <path d="M1971.544 893.505c-2.694-1.288-4.727-2.648-4.541-3.036.186-.389 2.52.34 5.214 1.628 2.694 1.289 4.727 2.649 4.541 3.037-.186.389-2.52-.34-5.214-1.629z" fill="#383838"/>
    <path d="M1971.544 893.505c-2.694-1.288-4.727-2.648-4.541-3.036.186-.389 2.52.34 5.214 1.628 2.694 1.289 4.727 2.649 4.541 3.037-.186.389-2.52-.34-5.214-1.629z" stroke="#FFF" fill="none"/>
    <path d="M1969.904 896.335c-2.913-.657-5.197-1.53-5.102-1.95.094-.421 2.533-.229 5.446.428 2.913.656 5.197 1.53 5.102 1.95-.095.42-2.533.229-5.446-.428z" fill="#383838"/>
    <path d="M1969.904 896.335c-2.913-.657-5.197-1.53-5.102-1.95.094-.421 2.533-.229 5.446.428 2.913.656 5.197 1.53 5.102 1.95-.095.42-2.533.229-5.446-.428z" stroke="#FFF" fill="none"/>
    <text transform="translate(2027.433 1027.571)">
        <tspan x="-77.862" y="10.5" font-family="Luminari-Regular" font-size="35" fill="#FFF">Web Jerk</tspan>
    </text>
    <path d="M2000.332 954.591l49.403-1.325" stroke="#1C1C1C" stroke-width="2" fill="none"/>
    <path d="M2028.928 960.048c-.598 0-.637-2.494-1.082-5.496-.564-3.804.248-7.039.845-7.039.598 0 3.014 2.671 1.319 7.039-1.098 2.83-.484 5.496-1.082 5.496zM2005.802 948.868c-.598 0-.638 2.493-1.082 5.496-.564 3.804.248 7.039.845 7.039.598 0 1.718-2.371 1.319-7.039-.285-3.324-.485-5.496-1.082-5.496zM2013.62 961.403c-.598 0-.638-2.493-1.082-5.495-.564-3.805.248-7.04.845-7.04.598 0 3.468 4.039 1.773 8.407-1.099 2.829-.939 4.128-1.536 4.128zM2021.697 960.048c-.598 0 .594-2.955.149-5.957-.563-3.804-.983-6.578-.386-6.578.598 0 3.468 4.038 1.773 8.406-1.099 2.829-.939 4.129-1.536 4.129zM2036.074 947.161c-.598 0-2.254 4.678-1.348 8.528.881 3.744.514 4.007 1.111 4.007.598 0 2.278-2.382 1.153-6.93-.453-1.832-.318-5.605-.916-5.605zM2042.988 959.225c.598 0 .301-1.887 1.476-4.686 1.752-4.172-.642-7.848-1.239-7.848-.598 0-1.718 2.37-1.319 7.039.285 3.323.485 5.495 1.082 5.495z"/>
    <g>
        <path d="M2076.698 61.222l13.164 13.068-178.404 129.459-13.164-13.067 178.404-129.46z" fill="#FFF"/>
        <path d="M2076.698 61.222l13.164 13.068-178.404 129.459-13.164-13.067 178.404-129.46z" stroke="#001156" fill="none"/>
    </g>
    <g>
        <path d="M1872.315 89.677l11.265-15.005 197.455 106.819-11.265 15.005-197.455-106.819z" fill="#FFF"/>
        <path d="M1872.315 89.677l11.265-15.005 197.455 106.819-11.265 15.005-197.455-106.819z" stroke="#001156" fill="none"/>
    </g>
    <path d="M1921.59 209.657c-15.072 15.627-24.711 14.004-24.301-.783.284-10.202-33.357-3.102-19.31-23.83 1.587-2.341 23.125-22.453 26.111 1.201 2.871 22.745 27.253 13.301 17.5 23.412zM2063.442 54.976c10.1-22.028 17.139-21.74 20.767-4.317 5.1 24.485 23.179-.635 20.508 24.439-.362 3.402-14.683 31.444-22.376 4.208-5.96-21.099-25.435-10.077-18.899-24.33zM1847.715 87.048c12.193 18.338 25.315 16.68 27.648 1.496 1.774-11.54 25.007-5.534 22.195-21.624-.504-2.886-20.644-25.669-29.23-2.506-6.415 17.306-28.503 10.768-20.613 22.634zM2057.219 204.985c13.27 16.954 22.357 14.77 22.882-2.123.4-12.86 25.09-6.146 19.514-28.004-.757-2.965-19.229-24.124-24.608 2.688-4.168 20.772-26.375 16.469-17.788 27.439z" fill="#FFF"/>
    <g>
        <path d="M1977.791 48.674c12.428.314 7.034.032 16.191.645 90.816 7.269 45.705 98.761 38.99 102.994-14.502 9.143-13.303 35-19.487 38.527-6.183 3.527-48.628 4.114-52.462.097-3.834-4.018-11.998-39.823-25.589-42.787-7.299-3.843-11.708-14.778-14.528-21.783-8.402-20.876-11.285-48.694 8.19-64.446 13.679-11.064 31.829-12.622 48.695-13.247z" clip-path="url(#c)" filter="url(#d)" fill="rgba(0,0,0,0.75)"/>
        <path d="M1961.023 190.937c-3.834-4.018-11.998-39.823-25.589-42.787-10.989-2.397-64.73-108.698 58.548-98.831 90.816 7.269 45.705 98.761 38.99 102.994-14.502 9.143-13.303 35-19.487 38.527-6.183 3.527-48.628 4.114-52.462.097z" fill="#FFF"/>
    </g>
    <g>
        <path d="M1956.763 114.842c-9.562.126-17.323-.437-17.334-1.257-.011-.82 7.733-1.586 17.295-1.711 9.563-.125 17.324.438 17.335 1.257.011.82-7.733 1.586-17.296 1.711z" fill="#383838"/>
        <path d="M1956.763 114.842c-9.562.126-17.323-.437-17.334-1.257-.011-.82 7.733-1.586 17.295-1.711 9.563-.125 17.324.438 17.335 1.257.011.82-7.733 1.586-17.296 1.711z" stroke="#FFF" fill="none"/>
    </g>
    <path d="M1978.397 154.602c-3.394-.336-1.009-3.898-.542-8.533.467-4.636.835-8.29 2.232-8.255 1.743.044 1.009 3.898.542 8.534-.467 4.636 1.753 8.649-2.232 8.254zM1987.107 153.791c3.391-.597.989-3.974.5-8.573-.49-4.599-.876-8.224-2.273-8.081-1.742.178-.989 3.974-.499 8.573.489 4.599-1.71 8.783 2.272 8.081z" fill="#383838"/>
    <g>
        <path d="M2008.117 128.272c-13.69-.625-24.134-12.407-23.328-26.316.806-13.91 12.557-24.679 26.247-24.054s24.134 12.407 23.328 26.317c-.806 13.909-12.557 24.678-26.247 24.053z" fill="#383838"/>
        <path d="M2008.117 128.272c-13.69-.625-24.134-12.407-23.328-26.316.806-13.91 12.557-24.679 26.247-24.054s24.134 12.407 23.328 26.317c-.806 13.909-12.557 24.678-26.247 24.053z" stroke="#FFF" fill="none"/>
        <path d="M2009.731 122.536c-10.931 0-19.792-8.818-19.792-19.695s8.861-19.695 19.792-19.695c10.932 0 19.793 8.818 19.793 19.695s-8.861 19.695-19.793 19.695z" fill="#383838"/>
        <path d="M2009.731 122.536c-10.931 0-19.792-8.818-19.792-19.695s8.861-19.695 19.792-19.695c10.932 0 19.793 8.818 19.793 19.695s-8.861 19.695-19.793 19.695z" stroke="#FFF" fill="none"/>
        <path d="M2009.731 112.934c-5.3 0-9.596-4.409-9.596-9.847s4.296-9.847 9.596-9.847 9.597 4.409 9.597 9.847-4.297 9.847-9.597 9.847z" fill="#575757"/>
        <path d="M2009.731 112.934c-5.3 0-9.596-4.409-9.596-9.847s4.296-9.847 9.596-9.847 9.597 4.409 9.597 9.847-4.297 9.847-9.597 9.847z" stroke="#FFF" fill="none"/>
        <g>
            <path d="M2009.731 109.064c-3.384 0-6.127-2.786-6.127-6.223s2.743-6.223 6.127-6.223c3.385 0 6.128 2.786 6.128 6.223s-2.743 6.223-6.128 6.223z" fill="#535353"/>
            <path d="M2009.731 109.064c-3.384 0-6.127-2.786-6.127-6.223s2.743-6.223 6.127-6.223c3.385 0 6.128 2.786 6.128 6.223s-2.743 6.223-6.128 6.223z" stroke="#FFF" fill="none"/>
        </g>
        <g>
            <path d="M2025.076 84.236c-4.377-1.09-2.299-2.77-1.822-3.302.478-.531 2.035.121 3.55 1.377 2.72 2.257 2.298 2.77 1.821 3.301-.477.532-2.046 2.599-3.549-1.376z" fill="#383838"/>
            <path d="M2025.076 84.236c-4.377-1.09-2.299-2.77-1.822-3.302.478-.531 2.035.121 3.55 1.377 2.72 2.257 2.298 2.77 1.821 3.301-.477.532-2.046 2.599-3.549-1.376z" stroke="#383838" fill="none"/>
        </g>
        <g>
            <path d="M2030.542 90.714c-2.449-1.973-.821-2.434-.417-2.633.405-.198 1.221.672 1.882 1.914 1.188 2.231.821 2.433.417 2.632-.405.198-1.802 1.054-1.882-1.913z" fill="#383838"/>
            <path d="M2030.542 90.714c-2.449-1.973-.821-2.434-.417-2.633.405-.198 1.221.672 1.882 1.914 1.188 2.231.821 2.433.417 2.632-.405.198-1.802 1.054-1.882-1.913z" stroke="#383838" fill="none"/>
        </g>
    </g>
    <g>
        <path d="M1935.62 110.123c-2.694-1.288-4.727-2.648-4.541-3.037.186-.389 2.52.341 5.214 1.629 2.694 1.289 4.727 2.648 4.541 3.037-.186.389-2.521-.34-5.214-1.629z" fill="#383838"/>
        <path d="M1935.62 110.123c-2.694-1.288-4.727-2.648-4.541-3.037.186-.389 2.52.341 5.214 1.629 2.694 1.289 4.727 2.648 4.541 3.037-.186.389-2.521-.34-5.214-1.629z" stroke="#FFF" fill="none"/>
    </g>
    <g>
        <path d="M1933.98 112.953c-2.913-.657-5.197-1.53-5.103-1.951.095-.42 2.534-.229 5.446.428 2.913.657 5.198 1.53 5.103 1.951-.095.42-2.533.229-5.446-.428z" fill="#383838"/>
        <path d="M1933.98 112.953c-2.913-.657-5.197-1.53-5.103-1.951.095-.42 2.534-.229 5.446.428 2.913.657 5.198 1.53 5.103 1.951-.095.42-2.533.229-5.446-.428z" stroke="#FFF" fill="none"/>
    </g>
    <text transform="translate(1991.509 244.189)">
        <tspan x="-77.862" y="10.5" font-family="Luminari-Regular" font-size="35" fill="#FFF">Web Jerk</tspan>
    </text>
    <g>
        <path d="M2414.642 94.945c-11.213-.524-19.857-8.433-19.307-17.666.549-9.232 10.083-16.292 21.295-15.768 11.212.524 19.856 8.434 19.307 17.666-.549 9.233-10.083 16.292-21.295 15.768z" fill="#383838"/>
        <path d="M2414.642 94.945c-11.213-.524-19.857-8.433-19.307-17.666.549-9.232 10.083-16.292 21.295-15.768 11.212.524 19.856 8.434 19.307 17.666-.549 9.233-10.083 16.292-21.295 15.768z" stroke="#FFF" fill="none"/>
    </g>
    <g>
        <path d="M2111.957 446.053l13.163 13.067-178.404 129.46-13.163-13.067 178.404-129.46z" fill="#FFF"/>
        <path d="M2111.957 446.053l13.163 13.067-178.404 129.46-13.163-13.067 178.404-129.46z" stroke="#001156" fill="none"/>
    </g>
    <g>
        <path d="M1907.574 474.508l11.265-15.005 197.454 106.819-11.265 15.005-197.454-106.819z" fill="#FFF"/>
        <path d="M1907.574 474.508l11.265-15.005 197.454 106.819-11.265 15.005-197.454-106.819z" stroke="#001156" fill="none"/>
    </g>
    <path d="M1956.849 594.488c-15.073 15.627-24.712 14.004-24.301-.784.283-10.201-33.358-3.102-19.311-23.829 1.587-2.342 23.125-22.454 26.111 1.2 2.871 22.745 27.254 13.302 17.501 23.413zM2098.7 439.807c10.101-22.028 17.14-21.74 20.768-4.318 5.099 24.485 23.178-.635 20.508 24.44-.363 3.402-14.684 31.443-22.377 4.208-5.96-21.1-25.434-10.077-18.899-24.33zM1882.974 471.879c12.193 18.338 25.314 16.68 27.648 1.495 1.773-11.54 25.006-5.533 22.195-21.624-.504-2.885-20.645-25.669-29.23-2.506-6.415 17.307-28.503 10.769-20.613 22.635zM2092.477 589.816c13.27 16.954 22.357 14.77 22.883-2.124.4-12.859 25.09-6.145 19.513-28.003-.757-2.966-19.228-24.124-24.608 2.688-4.167 20.772-26.374 16.468-17.788 27.439z" fill="#FFF"/>
    <g>
        <path d="M1996.782 576.267c-3.834-4.017-11.998-39.823-25.59-42.787-10.988-2.396-64.729-108.697 58.549-98.83 90.816 7.268 45.704 98.761 38.99 102.994-14.502 9.142-13.304 34.999-19.487 38.527-6.183 3.527-48.629 4.114-52.462.096z" fill="#FFF"/>
        <path d="M1996.782 576.267c-3.834-4.017-11.998-39.823-25.59-42.787-10.988-2.396-64.729-108.697 58.549-98.83 90.816 7.268 45.704 98.761 38.99 102.994-14.502 9.142-13.304 34.999-19.487 38.527-6.183 3.527-48.629 4.114-52.462.096z" stroke="#1C1C1C" stroke-width="5" fill="none"/>
    </g>
    <path d="M2013.655 539.433c-3.393-.337-1.008-3.898-.541-8.534.467-4.636.834-8.289 2.232-8.254 1.743.044 1.008 3.898.541 8.534-.466 4.635 1.753 8.649-2.232 8.254zM2022.366 538.622c3.391-.598.989-3.975.499-8.574-.489-4.599-.875-8.223-2.272-8.081-1.743.179-.989 3.975-.5 8.574.49 4.599-1.71 8.783 2.273 8.081z" fill="#383838"/>
    <g>
        <path d="M2043.375 513.103c-13.689-.625-24.134-12.408-23.328-26.317.806-13.909 12.557-24.678 26.247-24.053s24.134 12.407 23.329 26.316c-.807 13.909-12.558 24.678-26.248 24.054z" fill="#383838"/>
        <path d="M2043.375 513.103c-13.689-.625-24.134-12.408-23.328-26.317.806-13.909 12.557-24.678 26.247-24.053s24.134 12.407 23.329 26.316c-.807 13.909-12.558 24.678-26.248 24.054z" stroke="#FFF" fill="none"/>
        <path d="M2044.99 507.366c-10.931 0-19.793-8.817-19.793-19.695 0-10.877 8.862-19.694 19.793-19.694s19.793 8.817 19.793 19.694c0 10.878-8.862 19.695-19.793 19.695z" fill="#383838"/>
        <path d="M2044.99 507.366c-10.931 0-19.793-8.817-19.793-19.695 0-10.877 8.862-19.694 19.793-19.694s19.793 8.817 19.793 19.694c0 10.878-8.862 19.695-19.793 19.695z" stroke="#515151" fill="none"/>
        <path d="M2044.99 497.765c-5.3 0-9.597-4.409-9.597-9.847 0-5.439 4.297-9.847 9.597-9.847s9.596 4.408 9.596 9.847c0 5.438-4.296 9.847-9.596 9.847z" fill="#575757"/>
        <path d="M2044.99 497.765c-5.3 0-9.597-4.409-9.597-9.847 0-5.439 4.297-9.847 9.597-9.847s9.596 4.408 9.596 9.847c0 5.438-4.296 9.847-9.596 9.847z" stroke="#FFF" fill="none"/>
        <g>
            <path d="M2044.875 492.023c-2.101 0-3.804-1.849-3.804-4.13 0-2.281 1.703-4.13 3.804-4.13s3.804 1.849 3.804 4.13c0 2.281-1.703 4.13-3.804 4.13z" fill="#535353"/>
            <path d="M2044.875 492.023c-2.101 0-3.804-1.849-3.804-4.13 0-2.281 1.703-4.13 3.804-4.13s3.804 1.849 3.804 4.13c0 2.281-1.703 4.13-3.804 4.13z" stroke="#FFF" fill="none"/>
        </g>
        <g>
            <path d="M2060.334 469.066c-4.376-1.089-2.298-2.77-1.821-3.301.477-.532 2.035.12 3.549 1.376 2.721 2.257 2.299 2.77 1.821 3.302-.477.531-2.045 2.598-3.549-1.377z" fill="#383838"/>
            <path d="M2060.334 469.066c-4.376-1.089-2.298-2.77-1.821-3.301.477-.532 2.035.12 3.549 1.376 2.721 2.257 2.299 2.77 1.821 3.302-.477.531-2.045 2.598-3.549-1.377z" stroke="#383838" fill="none"/>
        </g>
        <g>
            <path d="M2065.801 475.544c-2.449-1.973-.822-2.433-.417-2.632.404-.198 1.22.672 1.881 1.914 1.189 2.23.822 2.433.417 2.632-.404.198-1.802 1.054-1.881-1.914z" fill="#383838"/>
            <path d="M2065.801 475.544c-2.449-1.973-.822-2.433-.417-2.632.404-.198 1.22.672 1.881 1.914 1.189 2.23.822 2.433.417 2.632-.404.198-1.802 1.054-1.881-1.914z" stroke="#383838" fill="none"/>
        </g>
    </g>
    <g>
        <path d="M1990.709 510.906c-11.212-.524-19.856-8.434-19.307-17.666.549-9.233 10.084-16.292 21.296-15.768 11.212.524 19.856 8.433 19.307 17.666-.549 9.232-10.084 16.292-21.296 15.768z" fill="#383838"/>
        <path d="M1990.709 510.906c-11.212-.524-19.856-8.434-19.307-17.666.549-9.233 10.084-16.292 21.296-15.768 11.212.524 19.856 8.433 19.307 17.666-.549 9.232-10.084 16.292-21.296 15.768z" stroke="#FFF" fill="none"/>
    </g>
    <path d="M2044.068 483.834l7.424-3.213M2045.503 483.834l9.124 3.547M2047.816 485.698l3.676 8.869M2042.541 496.854l5.926-7.378M2035.845 492.117l9.27-.163M2035.845 485.698l6.696 4.949M2042.541 478.888l-1.47 8.493" stroke="#FFF" stroke-width=".3" fill="none"/>
    <path d="M2044.835 500.972c-7.229 0-13.09-5.844-13.09-13.054s5.861-13.055 13.09-13.055 13.089 5.845 13.089 13.055-5.86 13.054-13.089 13.054z" stroke="#929292" stroke-width="3" fill="none"/>
    <g fill="#FFF">
        <path d="M261.905 78.277c23.981 8.676 42.574 1.162 12.757 11.176s-154.113 61.493-167.1 131.695c-.693 3.743-11.059-6.943-12.757-11.176-13.399-33.399 143.12-140.371 167.1-131.695z"/>
        <path d="M50.281 100.174c-2.698 2.171 7.731-13.865 10.08-14.908 49.482-21.972 210.591 92.304 204.621 98.19-5.97 5.887 15.433 56.332-10.08 14.908-25.513-41.424-182.122-116.29-204.621-98.19zM119.922 219.261c-6.703 20.152-16.185 23.073-22.425 10.203-4.305-8.879-31.69 12.267-28.199-11.802.394-2.719 10.965-29.613 24.256-10.656 12.78 18.229 30.705-.785 26.368 12.255zM246.659 68.361c11.974-23.109 19.443-22.508 22.329-3.747 4.055 26.366 24.686.286 20.445 26.959-.576 3.619-17.373 32.975-24.033 3.564-5.16-22.787-26.488-11.823-18.741-26.776z"/>
        <path d="M35.495 101.864c12.407 17.397 28.298 6.431 25.316-7.969-2.267-10.944 20.594-13.381 12.69-26.862-1.418-2.417-22.831-15.711-27.073 7.596-3 16.479-17.121 18.557-10.933 27.235zM248.939 212.307c16.247 13.985 25.282 10.516 23.265-5.542-1.536-12.224 24.93-9.688 15.87-29.499-1.229-2.688-23.474-19.846-24.957 6.343-1.148 20.289-24.69 19.649-14.178 28.698z"/>
    </g>
    <g>
        <path d="M144.209 213.294c-3.834-4.017-11.998-39.823-25.589-42.787-10.989-2.397-64.729-108.698 58.548-98.831 90.816 7.269 45.705 98.761 38.99 102.995-14.501 9.142-13.303 34.999-19.486 38.526-6.183 3.528-48.629 4.115-52.463.097z" fill="#FFF"/>
        <path d="M144.209 213.294c-3.834-4.017-11.998-39.823-25.589-42.787-10.989-2.397-64.729-108.698 58.548-98.831 90.816 7.269 45.705 98.761 38.99 102.995-14.501 9.142-13.303 34.999-19.486 38.526-6.183 3.528-48.629 4.115-52.463.097z" stroke="#1C1C1C" stroke-width="5" fill="none"/>
    </g>
    <path d="M167.756 175.672c-3.407.151-1.553-3.714-1.751-8.369-.198-4.655-.354-8.324 1.034-8.488 1.731-.205 1.553 3.714 1.751 8.369.198 4.656 2.967 8.312-1.034 8.488zM176.263 173.629c3.271-1.074.413-4.075-.727-8.557s-2.038-8.015-3.4-7.675c-1.7.425-.413 4.075.726 8.557 1.14 4.483-.441 8.937 3.401 7.675z" fill="#383838"/>
    <g>
        <path d="M137.896 147.682c-10.582-.492-18.718-8.375-18.173-17.608.545-9.233 9.565-16.319 20.146-15.827 10.581.491 18.718 8.375 18.173 17.607-.545 9.233-9.565 16.319-20.146 15.828z" fill="#383838"/>
        <path d="M137.896 147.682c-10.582-.492-18.718-8.375-18.173-17.608.545-9.233 9.565-16.319 20.146-15.827 10.581.491 18.718 8.375 18.173 17.607-.545 9.233-9.565 16.319-20.146 15.828z" stroke="#FFF" fill="none"/>
    </g>
    <g>
        <path d="M191.709 140.603c-9.218-.421-16.255-8.248-15.72-17.481.536-9.234 8.443-16.377 17.661-15.955 9.217.421 16.255 8.248 15.719 17.481-.536 9.233-8.442 16.377-17.66 15.955z" fill="#383838"/>
        <path d="M191.709 140.603c-9.218-.421-16.255-8.248-15.72-17.481.536-9.234 8.443-16.377 17.661-15.955 9.217.421 16.255 8.248 15.719 17.481-.536 9.233-8.442 16.377-17.66 15.955z" stroke="#FFF" fill="none"/>
    </g>
</svg>
